<?xml version="1.0" encoding="UTF-8"?> <!-- Generator: Adobe Illustrator 24.1.2, SVG Export Plug-In . SVG Version: 6.00 Build 0) --> <svg xmlns="http://www.w3.org/2000/svg" xmlns:xlink="http://www.w3.org/1999/xlink" version="1.1" id="Layer_1" x="0px" y="0px" width="1194px" height="500px" viewBox="0 0 1194 500" style="enable-background:new 0 0 1194 500;" xml:space="preserve"> <style type="text/css"> .st0{fill:#263133;} .st1{fill:#0C8688;} </style> <path class="st0" d="M326.8,277.9c0-20.1-14.9-35.4-33.6-35.4c-19,0-33.6,15.3-33.6,35.4c0,19.8,14.6,35.2,33.6,35.2 C312,313,326.8,297.7,326.8,277.9 M223.9,277.6c0-36.6,29.6-66.4,69.3-66.4c39.7,0,69.4,29.7,69.4,66.4c0,36.7-29.6,66.4-69.3,66.4 C253.6,344,223.9,314.5,223.9,277.6"></path> <path class="st0" d="M378.5,329l-0.1-103.2c0-7.7,4.2-11.9,11.8-11.9h14.5c7.6,0,11.8,4.2,11.8,11.9l0,8.4c6.1-14.6,19.7-23,38.4-23 c34,0,46.3,26.7,46.4,56.5l0,61.2c0,7.7-4.4,11.8-12.1,11.8H475c-7.6,0-11.9-4.2-11.9-11.8v-58.5c0-17.8-6.9-28.1-20-28.1 c-13,0-26.6,10.1-26.6,33.8l0,52.8c0,7.7-4.2,11.8-11.8,11.8h-14.5C382.7,340.8,378.5,336.6,378.5,329"></path> <path class="st0" d="M617.3,262.8c-3.4-17.1-17.8-22.5-30.8-22.5c-13.2,0-28.1,5.9-32.2,22.5H617.3z M517.1,278.1 c0-35.9,26.6-66.9,68.8-66.9c35.7,0,65,21.8,66.7,62.4c0.2,7.2-4.6,10.4-12,10.4h-87.5c-0.5,15.1,14.4,29.7,38.6,29.7 c9,0,18.3-2.2,27.8-7.7c6.6-3.7,12-3.2,16.6,2.5l2.7,3.5c4.9,5.9,4.4,12.6-2.2,17.6c-14.4,10.7-31.3,14.4-47.4,14.4 C544.5,344,517.2,314.5,517.1,278.1z"></path> <path class="st0" d="M914.8,280.8c0-20.3-12.8-35.7-32.1-35.7c-19.8,0-31.3,16.1-31.3,35.7c0,19.8,11.5,35.7,31.4,35.7 C902.1,316.4,914.9,301.1,914.8,280.8 M813.5,280.8c0-37.4,25.2-66.4,60.4-66.4c16.6,0,31.3,6.4,40.4,20.8l0-6.2 c0-7.7,4.1-11.9,11.7-11.9h14.4c7.6,0,11.8,4.2,11.8,11.9v103.5c0,7.7-4.1,11.9-11.7,11.9h-14.4c-7.6,0-11.7-4.2-11.8-11.9v-5.9 c-9,14.1-23.7,20.6-40.4,20.6C838.8,347.1,813.5,318.4,813.5,280.8"></path> <path class="st0" d="M974.4,329l-0.1-103.2c0-7.7,4.2-11.9,11.9-11.9h13.7c7.7,0,11.9,4.2,11.9,11.9l0,15.8 c4.2-23.2,22.1-30.4,33-30.4l4.2,0.3c6,0.5,7.2,5.2,7.2,10.1l0,17.3c0,6.9-3.5,9.9-8.7,9.1c-2.2-0.3-4.2-0.5-6.2-0.5 c-14.9,0-28.6,9.6-28.5,41.5l0,40c0,7.7-4.2,11.8-11.9,11.8h-14.7C978.6,340.8,974.4,336.6,974.4,329"></path> <path class="st0" d="M1156,263.1c-3.4-17-17.8-22.4-30.7-22.4c-13.1,0-27.9,5.9-32.1,22.4H1156z M1056.4,278.4 c0-35.7,26.4-66.6,68.5-66.6c35.5,0,64.7,21.7,66.4,62.1c0.2,7.1-4.6,10.4-11.9,10.4h-87c-0.5,15,14.4,29.6,38.4,29.6 c9,0,18.2-2.2,27.7-7.6c6.6-3.7,11.9-3.2,16.5,2.5l2.7,3.4c4.9,5.9,4.4,12.6-2.2,17.5c-14.3,10.6-31.1,14.3-47.1,14.3 C1083.6,343.9,1056.4,314.6,1056.4,278.4z"></path> <path class="st0" d="M779.1,173.3h-14.2c-9,0-11.3,6.5-11.3,10v146.9c0,0,0.2,10.6,12.2,10.6H780c9,0,11.3-6.5,11.3-10 c0-6.1,0.1-146.9,0.1-146.9S791.1,173.3,779.1,173.3"></path> <path class="st0" d="M738.4,222.5c0-3.9-2.2-6.1-6.1-6.1h-22.1l0-7.4c0-15,11.8-19.9,26.2-19.9c6.4,0,7.7-2.5,7.7-5.3 c0-2.9,0.1-12.6,0-17c-0.1-4.4-4-6.1-6.6-6.1c-0.4,0-0.7,0-1.1,0c-32.8,0-63.2,9.6-63.2,48.4l0,7.4H662c-3.9,0-6.1,2.2-6.1,6.1 l0,14.2c0,3.9,2.2,6.1,6.1,6.1h11.3l0.1,86.1c0,7.6,4.2,11.8,11.8,11.8h14c7.6,0,12-4.2,12-11.8l-0.1-86.1h21.3 c3.9,0,6.1-2.2,6.1-6.1L738.4,222.5z"></path> <path class="st1" d="M179.3,252.9c-0.4-0.3-0.8-0.6-1.2-0.8c-3-1.9-6.6-2.6-10.1-2.4c-4.7,0.3-9.3,2.6-12.2,6.3 c-2.9,3.8-3.9,8.7-4.3,13.4c-1,14.2-1.9,26.8-13.2,37c-9.1,8.1-21.9,11.6-33.8,8.9c-16.2-3.7-28.7-18.9-27.8-35.8 c0.7-14,10.8-27.1,24.1-31.3c8.3-2.6,17.4-2,25.4,1.3c7.7,3.2,14.8,9.7,19.7,16.5c2.3-13.9,10.4-22.1,20.8-25.6 c-5.3-8.2-21.7-20.6-34-25.2c-12.5-4.6,24.5-43,29.6-47.7c4.2-3.9,8.6-7.6,11.9-12.3c1.5-2.2,2.8-4.7,2.4-7.3 c-0.3-2-1.6-3.7-3.3-4.9c-1.1-0.8-2.5-1.4-3.8-1.7c-16.4-4.1-33.5,8.8-45.2,18.9c-7.4,6.4-14.1,13.5-20.6,20.8 c-5.6,6.3-9.9,14.3-16.3,19.9c-0.8,0.7-2,1.4-2.8,0.7c-0.4-0.3-0.5-0.9-0.6-1.4c-0.8-4.7,1.2-10.5,2.5-15c1.4-4.9,3.2-9.8,5.5-14.4 c3.5-7.2,7.6-14.2,9.5-22c0.5-2.2,0.8-4.6-0.3-6.6c-1.3-2.3-4.1-3.3-6.7-3.3c-18.5-0.5-32.8,24.4-38.8,39 c-6.2,15.2-8.8,31.5-12.2,47.5c-0.2,0.9-0.7,2-1.5,1.8c-0.4-0.1-0.7-0.3-0.9-0.6c-2.1-2.4-2.9-6-3.4-9.1c-0.5-3.6-0.5-7.3-0.6-10.9 c-0.3-8.5,0.4-17.6-1.4-26c-0.4-2-1.1-4.1-2.7-5.4c-2.3-1.8-5.6-1.3-8.2-0.1c-9.7,4.2-15.4,15.1-18.1,24.9 c-3.2,11.7-5.5,23.8-6.2,36c-2.7,49.8,18.7,102.9,68.2,120.8c31,11.3,69.7,7.3,94.2-15.7c11.9-11.1,20.3-25.8,23.8-41.7 c2.5-11.2,2.9-24.7-0.4-35.8C184.9,259.6,182.6,255.6,179.3,252.9"></path> </svg> 